<?xml version="1.0" standalone="no"?>
<svg elementtiming="1" role="presentation" id="art-topology" height="2640px" width="4484px" xmlns="http://www.w3.org/2000/svg" style="background-color:#FAF9F8"><g elementtiming="1" role="presentation" transform="matrix(0.810337 0 0 0.810337 1908 986)"><g elementtiming="1" class="edge" role="presentation"><path elementtiming="1" data-id="bundle_ee6166a4-a26b-4d71-ad12-9b1a684c0866737ded9d-c4ad-4d5e-af4f-8a1b8d7d3947" class="edge-path  unknown-health-edge-path" d="M56,28C156,28,156,28,256,28" marker-start="" marker-end=""></path></g><g elementtiming="1" class="edge" role="presentation"><path elementtiming="1" data-id="bundle_737ded9d-c4ad-4d5e-af4f-8a1b8d7d394728513af0-236c-4a60-90d2-1449503c4482" class="edge-path  unknown-health-edge-path" d="M312,28C412,28,412,28,512,28" marker-start="" marker-end=""></path></g><g elementtiming="1" class="edge" role="presentation"><path elementtiming="1" data-id="bundle_3800b05f-b37c-4071-959c-ffbf8ca4daae28513af0-236c-4a60-90d2-1449503c4482" class="edge-path  unknown-health-edge-path" d="M568,28C668,28,668,28,768,28" marker-start="" marker-end=""></path></g><g elementtiming="1" class="edge" role="presentation"><path elementtiming="1" data-id="bundle_737ded9d-c4ad-4d5e-af4f-8a1b8d7d39474299c1ed-3c98-410f-bef7-50c9f4958aaf" class="edge-path  unknown-health-edge-path" d="M298,56C405,56,405,284,512,284" marker-start="" marker-end=""></path></g><g elementtiming="1" class="edge" role="presentation"><path elementtiming="1" data-id="bundle_4299c1ed-3c98-410f-bef7-50c9f4958aaf1e55fc86-8169-4a5f-89aa-9e62e2313bf1" class="edge-path  unknown-health-edge-path" d="M568,284C668,284,668,284,768,284" marker-start="" marker-end=""></path></g><g elementtiming="1" class="edge" role="presentation"><path elementtiming="1" data-id="bundle_a332180c-1db2-44e6-91c9-0c271678a505737ded9d-c4ad-4d5e-af4f-8a1b8d7d3947" class="edge-path  unknown-health-edge-path" d="M291,56C401.5,56,401.5,540,512,540" marker-start="" marker-end=""></path></g><g elementtiming="1" class="edge" role="presentation"><path elementtiming="1" data-id="bundle_a332180c-1db2-44e6-91c9-0c271678a5056ddbc5f3-e047-4c79-b2ae-242315f5745d" class="edge-path  unknown-health-edge-path" d="M568,540C668,540,668,540,768,540" marker-start="" marker-end=""></path></g><g elementtiming="1" class="edge" role="presentation"><path elementtiming="1" data-id="bundle_e86dd28b-ea8e-4fbd-b6ff-37de8138fce6737ded9d-c4ad-4d5e-af4f-8a1b8d7d3947" class="edge-path  unknown-health-edge-path" d="M288.667,56C400.333,56,400.333,796,512,796" marker-start="" marker-end=""></path></g><g elementtiming="1" class="edge" role="presentation"><path elementtiming="1" data-id="bundle_e86dd28b-ea8e-4fbd-b6ff-37de8138fce66818e933-91d6-424c-80dd-30c07efe1fea" class="edge-path  unknown-health-edge-path" d="M568,796C668,796,668,796,768,796" marker-start="" marker-end=""></path></g><g elementtiming="1" role="Group" transform="translate(284, 28)" class="node-outer undimmed" aria-label="vhub-vwan-lab-001" tabindex="0"><g elementtiming="1" role="presentation" class="resource-node"><g elementtiming="1" aria-hidden="true"><g elementtiming="1"><a elementtiming="1" listener="true"><circle elementtiming="1" r="28" cx="0" cy="0" class="contrast-circle" filter=""></circle><svg elementtiming="1" aria-hidden="true" x="-15" y="-15" height="30" width="30"><svg elementtiming="1" xmlns="http://www.w3.org/2000/svg" height="30" width="30" preserveAspectRatio="none" id="b6f74ca5-3ae6-426f-9ef1-9ff6bbaa7f1c" viewBox="0 0 18 18">&nbsp; <defs elementtiming="1">&nbsp; &nbsp; <linearGradient elementtiming="1" id="b6875a37-db68-4377-adb7-b0d79798ec6c" x1="9.05" y1="3.517" x2="9.05" y2="14.558" gradientUnits="userSpaceOnUse">&nbsp; &nbsp; &nbsp; <stop elementtiming="1" offset="0" stop-color="#5ea0ef"></stop>&nbsp; &nbsp; &nbsp; <stop elementtiming="1" offset="1" stop-color="#0078d4"></stop>&nbsp; &nbsp; </linearGradient>&nbsp; </defs>&nbsp; <g elementtiming="1" id="af31e474-1dad-4008-bd4d-6416e43d4971">&nbsp; &nbsp; <path elementtiming="1" d="M5.539,5.111,3.148,1.553l.7-.471L6.239,4.64Zm.779,8.512-.681-.5-2.48,3.383.681.5ZM3.969,8.615,1.294,8.553,1.275,9.4l2.675.062ZM15.105,1.563l-.687-.491L11.873,4.63l.686.491Zm0,14.944-2.546-3.473-.68.5,2.545,3.473ZM16.984,9.4l-.019-.844-2.706.062.02.844Z" fill="#83b9f9"></path>&nbsp; &nbsp; <path elementtiming="1" d="M13.46,5.709A5.53,5.53,0,0,0,5.724,4.63l-.056.043a5.523,5.523,0,0,0,6.77,8.729h0A5.545,5.545,0,0,0,13.46,5.709ZM4.255,8.683a4.825,4.825,0,0,1,.533-1.874H6.126a8.969,8.969,0,0,0-.257,1.874ZM6.867,6.809H8.7V8.683H6.579A8.2,8.2,0,0,1,6.867,6.809Zm2.54,0h1.832a8.2,8.2,0,0,1,.288,1.874H9.407ZM8.7,9.392v1.874H6.867a8.208,8.208,0,0,1-.288-1.874Zm.709,0h2.12a8.208,8.208,0,0,1-.288,1.874H9.407Zm2.83,0h1.608a4.855,4.855,0,0,1-.53,1.874H11.98A9.055,9.055,0,0,0,12.237,9.392Zm0-.709a9.036,9.036,0,0,0-.257-1.874h1.338a4.779,4.779,0,0,1,.529,1.874ZM12.865,6.1h-1.1a5.38,5.38,0,0,0-.778-1.469A4.775,4.775,0,0,1,12.865,6.1ZM11,6.1H9.407V4.3A2.875,2.875,0,0,1,11,6.1ZM8.7,4.3V6.1H7.109A2.876,2.876,0,0,1,8.7,4.3Zm-2.6.936L6.151,5.2a4.835,4.835,0,0,1,.972-.568A5.375,5.375,0,0,0,6.342,6.1h-1.1A4.822,4.822,0,0,1,6.1,5.233ZM4.254,9.392H5.869a8.988,8.988,0,0,0,.257,1.874H4.787A4.8,4.8,0,0,1,4.254,9.392Zm1,2.6-.009-.012h1.1a5.409,5.409,0,0,0,.78,1.471A4.781,4.781,0,0,1,5.249,11.987Zm1.86-.012H8.7v1.8A2.882,2.882,0,0,1,7.109,11.975Zm2.3,1.8v-1.8H11A2.88,2.88,0,0,1,9.407,13.778Zm2.6-.937h0a4.8,4.8,0,0,1-1.021.607,5.383,5.383,0,0,0,.781-1.473h1.1A4.773,4.773,0,0,1,12,12.841Z" fill="url(#b6875a37-db68-4377-adb7-b0d79798ec6c)"></path>&nbsp; &nbsp; <path elementtiming="1" d="M17.991,9.037A1.294,1.294,0,1,1,16.7,7.743,1.294,1.294,0,0,1,17.991,9.037ZM1.284,7.743A1.294,1.294,0,1,0,2.578,9.037,1.294,1.294,0,0,0,1.284,7.743ZM3.5,15.389a1.294,1.294,0,1,0,1.293,1.294A1.294,1.294,0,0,0,3.5,15.389Zm11.07,0a1.294,1.294,0,1,0,1.294,1.294A1.294,1.294,0,0,0,14.568,15.389ZM3.5.024A1.294,1.294,0,1,0,4.791,1.317,1.293,1.293,0,0,0,3.5.024Zm11.165,0a1.294,1.294,0,1,0,1.294,1.293A1.294,1.294,0,0,0,14.663.024Z" fill="#a67af4"></path>&nbsp; </g></svg><rect elementtiming="1" height="30" width="30" class="clear-rect"><title elementtiming="1">vhub-vwan-lab-001</title></rect></svg><g elementtiming="1" aria-hidden="true" transform="translate(0, 43)" class="node-title"><text elementtiming="1" y="0" x="0" class="text"><title elementtiming="1">vhub-vwan-lab-001</title><tspan elementtiming="1">vhub-vwan-lab-001</tspan></text></g></a></g></g></g></g><g elementtiming="1" role="Group" transform="translate(28, 28)" class="node-outer undimmed" aria-label="vwan-lab" tabindex="0"><g elementtiming="1" role="presentation" class="resource-node"><g elementtiming="1" aria-hidden="true"><g elementtiming="1"><a elementtiming="1" listener="true"><circle elementtiming="1" r="28" cx="0" cy="0" class="contrast-circle" filter=""></circle><svg elementtiming="1" aria-hidden="true" x="-15" y="-15" height="30" width="30"><svg elementtiming="1" id="a510a120-e8af-4fe0-831e-67ebe9c4368b" xmlns="http://www.w3.org/2000/svg" height="30" width="30" preserveAspectRatio="none" viewBox="0 0 18 18">&nbsp; <defs elementtiming="1">&nbsp; &nbsp; <linearGradient elementtiming="1" id="a009acc1-6e03-4969-81ca-b157b58a2f69" x1="9" y1="172.704" x2="9" y2="160.613" gradientTransform="translate(0 -160)" gradientUnits="userSpaceOnUse">&nbsp; &nbsp; &nbsp; <stop elementtiming="1" offset="0" stop-color="#198ab3"></stop>&nbsp; &nbsp; &nbsp; <stop elementtiming="1" offset="0.11" stop-color="#22a5cb"></stop>&nbsp; &nbsp; &nbsp; <stop elementtiming="1" offset="0.23" stop-color="#29bade"></stop>&nbsp; &nbsp; &nbsp; <stop elementtiming="1" offset="0.37" stop-color="#2ec9eb"></stop>&nbsp; &nbsp; &nbsp; <stop elementtiming="1" offset="0.53" stop-color="#31d1f3"></stop>&nbsp; &nbsp; &nbsp; <stop elementtiming="1" offset="0.78" stop-color="#32d4f5"></stop>&nbsp; &nbsp; </linearGradient>&nbsp; </defs>&nbsp; <g elementtiming="1">&nbsp; &nbsp; <path elementtiming="1" d="M17.5,8.9a3.854,3.854,0,0,0-3.3-3.7A4.871,4.871,0,0,0,9.2.6,5.011,5.011,0,0,0,4.5,3.8a4.693,4.693,0,0,0-4,4.4,4.612,4.612,0,0,0,4.8,4.5h8.4A3.8,3.8,0,0,0,17.5,8.9Z" fill="url(#a009acc1-6e03-4969-81ca-b157b58a2f69)"></path>&nbsp; &nbsp; <circle elementtiming="1" cx="9" cy="12.9" r="4.4" fill="#f2f2f2"></circle>&nbsp; &nbsp; <path elementtiming="1" d="M12.7,10.1a4.6,4.6,0,0,0-6.4-.9h0a4.561,4.561,0,1,0,5.6,7.2h0A4.557,4.557,0,0,0,12.7,10.1ZM5.1,12.6A4.707,4.707,0,0,1,5.5,11H6.6a7.772,7.772,0,0,0-.2,1.6ZM7.2,11H8.7v1.6H7A7.772,7.772,0,0,1,7.2,11Zm2.1,0h1.5a7.772,7.772,0,0,1,.2,1.6H9.3Zm-.5,2.1v1.6H7.2l-.3-1.5Zm.5,0h1.8a9.971,9.971,0,0,1-.2,1.6H9.3Zm2.4,0H13a4.707,4.707,0,0,1-.4,1.6H11.5a7.772,7.772,0,0,0,.2-1.6Zm0-.5a9.971,9.971,0,0,0-.2-1.6h1.1a4.193,4.193,0,0,1,.4,1.6Zm.5-2.2h-.9a4.5,4.5,0,0,0-.6-1.2,4.428,4.428,0,0,1,1.5,1.2Zm-1.5,0H9.3V9a2.171,2.171,0,0,1,1.4,1.4ZM8.8,9v1.5H7.4A2.118,2.118,0,0,1,8.8,9Zm-2.2.7h0a5.582,5.582,0,0,1,.8-.5,3.1,3.1,0,0,0-.6,1.3H5.9A2.7,2.7,0,0,1,6.6,9.7ZM5.1,13.2H6.4a9.971,9.971,0,0,0,.2,1.6H5.5A5.349,5.349,0,0,1,5.1,13.2Zm.8,2.1h.9l.6,1.2A3.491,3.491,0,0,1,5.9,15.3Zm1.5,0H8.7v1.5a2.433,2.433,0,0,1-1.3-1.5Zm1.9,1.5V15.3h1.3a1.968,1.968,0,0,1-1.3,1.5Zm2.2-.8h0a2.622,2.622,0,0,1-.9.5,3.379,3.379,0,0,0,.6-1.2h.9A1.344,1.344,0,0,1,11.5,16Z" fill="#0078d4"></path>&nbsp; &nbsp; <path elementtiming="1" d="M5.1,11.4A4.025,4.025,0,0,1,2.9,8.5,3.646,3.646,0,0,1,4.4,5.6L5,5.1l.5.6-.6.5A2.509,2.509,0,0,0,3.7,8.4a3.031,3.031,0,0,0,1.8,2.3Z" fill="#e6e6e6"></path>&nbsp; &nbsp; <circle elementtiming="1" cx="5.3" cy="5.4" r="1.1" fill="#f2f2f2"></circle>&nbsp; &nbsp; <path elementtiming="1" d="M12.7,11.4l-.4-.7a3.259,3.259,0,0,0,1.8-2.3,2.748,2.748,0,0,0-1.2-2.2l-.6-.4.5-.6.6.4a3.071,3.071,0,0,1,1.5,2.9A4.025,4.025,0,0,1,12.7,11.4Z" fill="#e6e6e6"></path>&nbsp; &nbsp; <circle elementtiming="1" cx="12.6" cy="5.4" r="1.1" fill="#f2f2f2"></circle>&nbsp; &nbsp; <circle elementtiming="1" cx="5.3" cy="11.1" r="1.1" fill="#ce74b6"></circle>&nbsp; &nbsp; <circle elementtiming="1" cx="12.6" cy="11.1" r="1.1" fill="#ce74b6"></circle>&nbsp; </g></svg><rect elementtiming="1" height="30" width="30" class="clear-rect"><title elementtiming="1">vwan-lab</title></rect></svg><g elementtiming="1" aria-hidden="true" transform="translate(0, 43)" class="node-title"><text elementtiming="1" y="0" x="0" class="text"><title elementtiming="1">vwan-lab</title><tspan elementtiming="1">vwan-lab</tspan></text></g></a></g></g></g></g><g elementtiming="1" role="Group" transform="translate(540, 28)" class="node-outer undimmed" aria-label="peer-vnet-sbx-spokedemo11-to-vhub-vwan-lab-001" tabindex="0"><g elementtiming="1" role="presentation" class="resource-node"><g elementtiming="1" aria-hidden="true"><g elementtiming="1"><a elementtiming="1" listener="true"><circle elementtiming="1" r="28" cx="0" cy="0" class="contrast-circle" filter=""></circle><svg elementtiming="1" aria-hidden="true" x="-15" y="-15" height="30" width="30"><svg elementtiming="1" height="30" width="30" preserveAspectRatio="none" id="f8cc67b6-88d2-4d65-b9d4-0887e04d1f38" viewBox="0 0 18 18"><defs elementtiming="1"><radialGradient elementtiming="1" id="b1cd44f2-d62b-4753-a859-aa68f089cdca" cx="46.42" cy="43.21" r="9" gradientTransform="translate(-34.84 -31.81) scale(0.94 0.94)" gradientUnits="userSpaceOnUse"><stop elementtiming="1" offset="0.18" stop-color="#5ea0ef"></stop><stop elementtiming="1" offset="0.56" stop-color="#5c9fee"></stop><stop elementtiming="1" offset="0.69" stop-color="#559ced"></stop><stop elementtiming="1" offset="0.78" stop-color="#4a97e9"></stop><stop elementtiming="1" offset="0.86" stop-color="#3990e4"></stop><stop elementtiming="1" offset="0.93" stop-color="#2387de"></stop><stop elementtiming="1" offset="0.99" stop-color="#087bd6"></stop><stop elementtiming="1" offset="1" stop-color="#0078d4"></stop></radialGradient><clipPath elementtiming="1" id="f0c68de7-8aac-4038-bd4b-8e0fb8fab5fc"><path elementtiming="1" d="M10.58,8.34,13,10.92a.22.22,0,0,1,0,.3l-.47.49a.2.2,0,0,1-.3,0h0L9,8.34A.22.22,0,0,1,9,8l3.15-3.32a.2.2,0,0,1,.3,0h0l.47.49a.23.23,0,0,1,0,.31L10.58,8A.22.22,0,0,0,10.58,8.34Z" fill="none"></path></clipPath><clipPath elementtiming="1" id="e1eb0374-eab6-40b9-91d8-e8a5f1c9b58a"><path elementtiming="1" d="M7.11,9.91,4.68,12.48a.23.23,0,0,0,0,.31l.47.49a.2.2,0,0,0,.3,0h0l3.2-3.37a.22.22,0,0,0,0-.3L5.5,6.29a.2.2,0,0,0-.3,0h0l-.47.49a.22.22,0,0,0,0,.3L7.11,9.61A.2.2,0,0,1,7.11,9.91Z" fill="none"></path></clipPath></defs><title elementtiming="1">Icon-networking-81</title><circle elementtiming="1" cx="9" cy="9" r="8.5" fill="url(#b1cd44f2-d62b-4753-a859-aa68f089cdca)"></circle><circle elementtiming="1" cx="9" cy="9" r="7.4" fill="#fff"></circle><g elementtiming="1" clip-path="url(#f0c68de7-8aac-4038-bd4b-8e0fb8fab5fc)"><polygon elementtiming="1" points="10.43 8.19 13.16 11.07 12.39 11.87 8.89 8.19 12.34 4.56 13.11 5.36 10.43 8.19" fill="#5e9624"></polygon><polygon elementtiming="1" points="13.16 11.07 10.43 8.19 9.67 8.99 12.39 11.87 13.16 11.07" fill="#86d633"></polygon></g><g elementtiming="1" clip-path="url(#e1eb0374-eab6-40b9-91d8-e8a5f1c9b58a)"><polygon elementtiming="1" points="7.26 9.76 4.54 12.64 5.3 13.44 8.8 9.76 5.35 6.13 4.58 6.93 7.26 9.76" fill="#5e9624"></polygon><polygon elementtiming="1" points="4.54 12.64 7.26 9.76 8.02 10.56 5.3 13.44 4.54 12.64" fill="#86d633"></polygon></g></svg><rect elementtiming="1" height="30" width="30" class="clear-rect"><title elementtiming="1">peer-vnet-sbx-spokedemo11-to-vhub-vwan-lab-001</title></rect></svg><g elementtiming="1" aria-hidden="true" transform="translate(0, 43)" class="node-title"><text elementtiming="1" y="0" x="0" class="text"><title elementtiming="1">peer-vnet-sbx-spokedemo11-to-vhub-vwan-lab-001</title><tspan elementtiming="1">peer-vnet-地n-lab-001</tspan></text></g></a></g></g></g></g><g elementtiming="1" role="Group" transform="translate(796, 28)" class="node-outer undimmed" aria-label="vnet-sbx-spokedemo11" tabindex="0"><g elementtiming="1" role="presentation" class="resource-node"><g elementtiming="1" aria-hidden="true"><g elementtiming="1"><a elementtiming="1" listener="true"><circle elementtiming="1" r="28" cx="0" cy="0" class="contrast-circle" filter=""></circle><svg elementtiming="1" aria-hidden="true" x="-15" y="-15" height="30" width="30"><svg elementtiming="1" id="a1606a52-fb14-4637-87de-4d524bba1829" viewBox="0 0 18 18" height="30" width="30" preserveAspectRatio="none"><defs elementtiming="1"><linearGradient elementtiming="1" id="f020fb7e-2243-4501-8153-5d69bd3c34f7" x1="9.88" y1="8.59" x2="11.52" y2="10.23" gradientTransform="translate(2.03 -0.4) rotate(-0.08)" gradientUnits="userSpaceOnUse"><stop elementtiming="1" offset="0" stop-color="#86d633"></stop><stop elementtiming="1" offset="0.24" stop-color="#83d232"></stop><stop elementtiming="1" offset="0.5" stop-color="#7cc52f"></stop><stop elementtiming="1" offset="0.76" stop-color="#6fb02a"></stop><stop elementtiming="1" offset="1" stop-color="#5e9624"></stop></linearGradient><linearGradient elementtiming="1" id="b3c2bc94-8c7c-48a2-9719-6ee899a43a97" x1="6.18" y1="8.59" x2="7.81" y2="10.23" href="#f020fb7e-2243-4501-8153-5d69bd3c34f7"></linearGradient><linearGradient elementtiming="1" id="e900c35d-0958-4d4f-b28f-302eeaaf52f5" x1="2.48" y1="8.59" x2="4.11" y2="10.23" href="#f020fb7e-2243-4501-8153-5d69bd3c34f7"></linearGradient></defs><title elementtiming="1">Icon-networking-61</title><circle elementtiming="1" cx="12.74" cy="8.99" r="1.16" fill="url(#f020fb7e-2243-4501-8153-5d69bd3c34f7)"></circle><circle elementtiming="1" cx="9.04" cy="9" r="1.16" fill="url(#b3c2bc94-8c7c-48a2-9719-6ee899a43a97)"></circle><circle elementtiming="1" cx="5.34" cy="9" r="1.16" fill="url(#e900c35d-0958-4d4f-b28f-302eeaaf52f5)"></circle><path elementtiming="1" d="M2.61,7.28h.94a.3.3,0,0,1,.3.3v6.94a.6.6,0,0,1-.6.6H2.31a0,0,0,0,1,0,0V7.58a.3.3,0,0,1,.3-.3Z" transform="translate(13.18 16.93) rotate(134.92)" fill="#50e6ff"></path><path elementtiming="1" d="M2.56,2.91H3.5a.3.3,0,0,1,.3.3v7.43a0,0,0,0,1,0,0H2.86a.6.6,0,0,1-.6-.6V3.21a.3.3,0,0,1,.3-.3Z" transform="translate(5.66 -0.16) rotate(44.92)" fill="#1490df"></path><path elementtiming="1" d="M14.15,7.28h.94a.6.6,0,0,1,.6.6v6.94a.3.3,0,0,1-.3.3h-.94a.3.3,0,0,1-.3-.3V7.28a0,0,0,0,1,0,0Z" transform="translate(12.32 -7.28) rotate(45.08)" fill="#50e6ff"></path><path elementtiming="1" d="M14.81,2.91h.94a0,0,0,0,1,0,0v7.43a.3.3,0,0,1-.3.3H14.5a.3.3,0,0,1-.3-.3V3.51a.6.6,0,0,1,.6-.6Z" transform="translate(30.36 0.99) rotate(135.08)" fill="#1490df"></path></svg><rect elementtiming="1" height="30" width="30" class="clear-rect"><title elementtiming="1">vnet-sbx-spokedemo11</title></rect></svg><g elementtiming="1" aria-hidden="true" transform="translate(0, 43)" class="node-title"><text elementtiming="1" y="0" x="0" class="text"><title elementtiming="1">vnet-sbx-spokedemo11</title><tspan elementtiming="1">vnet-sbx-spokedemo11</tspan></text></g></a></g></g></g></g><g elementtiming="1" role="Group" transform="translate(540, 284)" class="node-outer undimmed" aria-label="peer-vnet-sbx-spokedemo31-to-vhub-vwan-lab-001" tabindex="0"><g elementtiming="1" role="presentation" class="resource-node"><g elementtiming="1" aria-hidden="true"><g elementtiming="1"><a elementtiming="1" listener="true"><circle elementtiming="1" r="28" cx="0" cy="0" class="contrast-circle" filter=""></circle><svg elementtiming="1" aria-hidden="true" x="-15" y="-15" height="30" width="30"><svg elementtiming="1" height="30" width="30" preserveAspectRatio="none" id="f8cc67b6-88d2-4d65-b9d4-0887e04d1f38" viewBox="0 0 18 18"><defs elementtiming="1"><radialGradient elementtiming="1" id="b1cd44f2-d62b-4753-a859-aa68f089cdca" cx="46.42" cy="43.21" r="9" gradientTransform="translate(-34.84 -31.81) scale(0.94 0.94)" gradientUnits="userSpaceOnUse"><stop elementtiming="1" offset="0.18" stop-color="#5ea0ef"></stop><stop elementtiming="1" offset="0.56" stop-color="#5c9fee"></stop><stop elementtiming="1" offset="0.69" stop-color="#559ced"></stop><stop elementtiming="1" offset="0.78" stop-color="#4a97e9"></stop><stop elementtiming="1" offset="0.86" stop-color="#3990e4"></stop><stop elementtiming="1" offset="0.93" stop-color="#2387de"></stop><stop elementtiming="1" offset="0.99" stop-color="#087bd6"></stop><stop elementtiming="1" offset="1" stop-color="#0078d4"></stop></radialGradient><clipPath elementtiming="1" id="f0c68de7-8aac-4038-bd4b-8e0fb8fab5fc"><path elementtiming="1" d="M10.58,8.34,13,10.92a.22.22,0,0,1,0,.3l-.47.49a.2.2,0,0,1-.3,0h0L9,8.34A.22.22,0,0,1,9,8l3.15-3.32a.2.2,0,0,1,.3,0h0l.47.49a.23.23,0,0,1,0,.31L10.58,8A.22.22,0,0,0,10.58,8.34Z" fill="none"></path></clipPath><clipPath elementtiming="1" id="e1eb0374-eab6-40b9-91d8-e8a5f1c9b58a"><path elementtiming="1" d="M7.11,9.91,4.68,12.48a.23.23,0,0,0,0,.31l.47.49a.2.2,0,0,0,.3,0h0l3.2-3.37a.22.22,0,0,0,0-.3L5.5,6.29a.2.2,0,0,0-.3,0h0l-.47.49a.22.22,0,0,0,0,.3L7.11,9.61A.2.2,0,0,1,7.11,9.91Z" fill="none"></path></clipPath></defs><title elementtiming="1">Icon-networking-81</title><circle elementtiming="1" cx="9" cy="9" r="8.5" fill="url(#b1cd44f2-d62b-4753-a859-aa68f089cdca)"></circle><circle elementtiming="1" cx="9" cy="9" r="7.4" fill="#fff"></circle><g elementtiming="1" clip-path="url(#f0c68de7-8aac-4038-bd4b-8e0fb8fab5fc)"><polygon elementtiming="1" points="10.43 8.19 13.16 11.07 12.39 11.87 8.89 8.19 12.34 4.56 13.11 5.36 10.43 8.19" fill="#5e9624"></polygon><polygon elementtiming="1" points="13.16 11.07 10.43 8.19 9.67 8.99 12.39 11.87 13.16 11.07" fill="#86d633"></polygon></g><g elementtiming="1" clip-path="url(#e1eb0374-eab6-40b9-91d8-e8a5f1c9b58a)"><polygon elementtiming="1" points="7.26 9.76 4.54 12.64 5.3 13.44 8.8 9.76 5.35 6.13 4.58 6.93 7.26 9.76" fill="#5e9624"></polygon><polygon elementtiming="1" points="4.54 12.64 7.26 9.76 8.02 10.56 5.3 13.44 4.54 12.64" fill="#86d633"></polygon></g></svg><rect elementtiming="1" height="30" width="30" class="clear-rect"><title elementtiming="1">peer-vnet-sbx-spokedemo31-to-vhub-vwan-lab-001</title></rect></svg><g elementtiming="1" aria-hidden="true" transform="translate(0, 43)" class="node-title"><text elementtiming="1" y="0" x="0" class="text"><title elementtiming="1">peer-vnet-sbx-spokedemo31-to-vhub-vwan-lab-001</title><tspan elementtiming="1">peer-vnet-地n-lab-001</tspan></text></g></a></g></g></g></g><g elementtiming="1" role="Group" transform="translate(796, 284)" class="node-outer undimmed" aria-label="vnet-sbx-spokedemo31" tabindex="0"><g elementtiming="1" role="presentation" class="resource-node"><g elementtiming="1" aria-hidden="true"><g elementtiming="1"><a elementtiming="1" listener="true"><circle elementtiming="1" r="28" cx="0" cy="0" class="contrast-circle" filter=""></circle><svg elementtiming="1" aria-hidden="true" x="-15" y="-15" height="30" width="30"><svg elementtiming="1" id="a1606a52-fb14-4637-87de-4d524bba1829" viewBox="0 0 18 18" height="30" width="30" preserveAspectRatio="none"><defs elementtiming="1"><linearGradient elementtiming="1" id="f020fb7e-2243-4501-8153-5d69bd3c34f7" x1="9.88" y1="8.59" x2="11.52" y2="10.23" gradientTransform="translate(2.03 -0.4) rotate(-0.08)" gradientUnits="userSpaceOnUse"><stop elementtiming="1" offset="0" stop-color="#86d633"></stop><stop elementtiming="1" offset="0.24" stop-color="#83d232"></stop><stop elementtiming="1" offset="0.5" stop-color="#7cc52f"></stop><stop elementtiming="1" offset="0.76" stop-color="#6fb02a"></stop><stop elementtiming="1" offset="1" stop-color="#5e9624"></stop></linearGradient><linearGradient elementtiming="1" id="b3c2bc94-8c7c-48a2-9719-6ee899a43a97" x1="6.18" y1="8.59" x2="7.81" y2="10.23" href="#f020fb7e-2243-4501-8153-5d69bd3c34f7"></linearGradient><linearGradient elementtiming="1" id="e900c35d-0958-4d4f-b28f-302eeaaf52f5" x1="2.48" y1="8.59" x2="4.11" y2="10.23" href="#f020fb7e-2243-4501-8153-5d69bd3c34f7"></linearGradient></defs><title elementtiming="1">Icon-networking-61</title><circle elementtiming="1" cx="12.74" cy="8.99" r="1.16" fill="url(#f020fb7e-2243-4501-8153-5d69bd3c34f7)"></circle><circle elementtiming="1" cx="9.04" cy="9" r="1.16" fill="url(#b3c2bc94-8c7c-48a2-9719-6ee899a43a97)"></circle><circle elementtiming="1" cx="5.34" cy="9" r="1.16" fill="url(#e900c35d-0958-4d4f-b28f-302eeaaf52f5)"></circle><path elementtiming="1" d="M2.61,7.28h.94a.3.3,0,0,1,.3.3v6.94a.6.6,0,0,1-.6.6H2.31a0,0,0,0,1,0,0V7.58a.3.3,0,0,1,.3-.3Z" transform="translate(13.18 16.93) rotate(134.92)" fill="#50e6ff"></path><path elementtiming="1" d="M2.56,2.91H3.5a.3.3,0,0,1,.3.3v7.43a0,0,0,0,1,0,0H2.86a.6.6,0,0,1-.6-.6V3.21a.3.3,0,0,1,.3-.3Z" transform="translate(5.66 -0.16) rotate(44.92)" fill="#1490df"></path><path elementtiming="1" d="M14.15,7.28h.94a.6.6,0,0,1,.6.6v6.94a.3.3,0,0,1-.3.3h-.94a.3.3,0,0,1-.3-.3V7.28a0,0,0,0,1,0,0Z" transform="translate(12.32 -7.28) rotate(45.08)" fill="#50e6ff"></path><path elementtiming="1" d="M14.81,2.91h.94a0,0,0,0,1,0,0v7.43a.3.3,0,0,1-.3.3H14.5a.3.3,0,0,1-.3-.3V3.51a.6.6,0,0,1,.6-.6Z" transform="translate(30.36 0.99) rotate(135.08)" fill="#1490df"></path></svg><rect elementtiming="1" height="30" width="30" class="clear-rect"><title elementtiming="1">vnet-sbx-spokedemo31</title></rect></svg><g elementtiming="1" aria-hidden="true" transform="translate(0, 43)" class="node-title"><text elementtiming="1" y="0" x="0" class="text"><title elementtiming="1">vnet-sbx-spokedemo31</title><tspan elementtiming="1">vnet-sbx-spokedemo31</tspan></text></g></a></g></g></g></g><g elementtiming="1" role="Group" transform="translate(540, 540)" class="node-outer undimmed" aria-label="peer-vnet-sbx-spokedemo41-to-vhub-vwan-lab-001" tabindex="0"><g elementtiming="1" role="presentation" class="resource-node"><g elementtiming="1" aria-hidden="true"><g elementtiming="1"><a elementtiming="1" listener="true"><circle elementtiming="1" r="28" cx="0" cy="0" class="contrast-circle" filter=""></circle><svg elementtiming="1" aria-hidden="true" x="-15" y="-15" height="30" width="30"><svg elementtiming="1" height="30" width="30" preserveAspectRatio="none" id="f8cc67b6-88d2-4d65-b9d4-0887e04d1f38" viewBox="0 0 18 18"><defs elementtiming="1"><radialGradient elementtiming="1" id="b1cd44f2-d62b-4753-a859-aa68f089cdca" cx="46.42" cy="43.21" r="9" gradientTransform="translate(-34.84 -31.81) scale(0.94 0.94)" gradientUnits="userSpaceOnUse"><stop elementtiming="1" offset="0.18" stop-color="#5ea0ef"></stop><stop elementtiming="1" offset="0.56" stop-color="#5c9fee"></stop><stop elementtiming="1" offset="0.69" stop-color="#559ced"></stop><stop elementtiming="1" offset="0.78" stop-color="#4a97e9"></stop><stop elementtiming="1" offset="0.86" stop-color="#3990e4"></stop><stop elementtiming="1" offset="0.93" stop-color="#2387de"></stop><stop elementtiming="1" offset="0.99" stop-color="#087bd6"></stop><stop elementtiming="1" offset="1" stop-color="#0078d4"></stop></radialGradient><clipPath elementtiming="1" id="f0c68de7-8aac-4038-bd4b-8e0fb8fab5fc"><path elementtiming="1" d="M10.58,8.34,13,10.92a.22.22,0,0,1,0,.3l-.47.49a.2.2,0,0,1-.3,0h0L9,8.34A.22.22,0,0,1,9,8l3.15-3.32a.2.2,0,0,1,.3,0h0l.47.49a.23.23,0,0,1,0,.31L10.58,8A.22.22,0,0,0,10.58,8.34Z" fill="none"></path></clipPath><clipPath elementtiming="1" id="e1eb0374-eab6-40b9-91d8-e8a5f1c9b58a"><path elementtiming="1" d="M7.11,9.91,4.68,12.48a.23.23,0,0,0,0,.31l.47.49a.2.2,0,0,0,.3,0h0l3.2-3.37a.22.22,0,0,0,0-.3L5.5,6.29a.2.2,0,0,0-.3,0h0l-.47.49a.22.22,0,0,0,0,.3L7.11,9.61A.2.2,0,0,1,7.11,9.91Z" fill="none"></path></clipPath></defs><title elementtiming="1">Icon-networking-81</title><circle elementtiming="1" cx="9" cy="9" r="8.5" fill="url(#b1cd44f2-d62b-4753-a859-aa68f089cdca)"></circle><circle elementtiming="1" cx="9" cy="9" r="7.4" fill="#fff"></circle><g elementtiming="1" clip-path="url(#f0c68de7-8aac-4038-bd4b-8e0fb8fab5fc)"><polygon elementtiming="1" points="10.43 8.19 13.16 11.07 12.39 11.87 8.89 8.19 12.34 4.56 13.11 5.36 10.43 8.19" fill="#5e9624"></polygon><polygon elementtiming="1" points="13.16 11.07 10.43 8.19 9.67 8.99 12.39 11.87 13.16 11.07" fill="#86d633"></polygon></g><g elementtiming="1" clip-path="url(#e1eb0374-eab6-40b9-91d8-e8a5f1c9b58a)"><polygon elementtiming="1" points="7.26 9.76 4.54 12.64 5.3 13.44 8.8 9.76 5.35 6.13 4.58 6.93 7.26 9.76" fill="#5e9624"></polygon><polygon elementtiming="1" points="4.54 12.64 7.26 9.76 8.02 10.56 5.3 13.44 4.54 12.64" fill="#86d633"></polygon></g></svg><rect elementtiming="1" height="30" width="30" class="clear-rect"><title elementtiming="1">peer-vnet-sbx-spokedemo41-to-vhub-vwan-lab-001</title></rect></svg><g elementtiming="1" aria-hidden="true" transform="translate(0, 43)" class="node-title"><text elementtiming="1" y="0" x="0" class="text"><title elementtiming="1">peer-vnet-sbx-spokedemo41-to-vhub-vwan-lab-001</title><tspan elementtiming="1">peer-vnet-地n-lab-001</tspan></text></g></a></g></g></g></g><g elementtiming="1" role="Group" transform="translate(796, 540)" class="node-outer undimmed" aria-label="vnet-sbx-spokedemo41" tabindex="0"><g elementtiming="1" role="presentation" class="resource-node"><g elementtiming="1" aria-hidden="true"><g elementtiming="1"><a elementtiming="1" listener="true"><circle elementtiming="1" r="28" cx="0" cy="0" class="contrast-circle" filter=""></circle><svg elementtiming="1" aria-hidden="true" x="-15" y="-15" height="30" width="30"><svg elementtiming="1" id="a1606a52-fb14-4637-87de-4d524bba1829" viewBox="0 0 18 18" height="30" width="30" preserveAspectRatio="none"><defs elementtiming="1"><linearGradient elementtiming="1" id="f020fb7e-2243-4501-8153-5d69bd3c34f7" x1="9.88" y1="8.59" x2="11.52" y2="10.23" gradientTransform="translate(2.03 -0.4) rotate(-0.08)" gradientUnits="userSpaceOnUse"><stop elementtiming="1" offset="0" stop-color="#86d633"></stop><stop elementtiming="1" offset="0.24" stop-color="#83d232"></stop><stop elementtiming="1" offset="0.5" stop-color="#7cc52f"></stop><stop elementtiming="1" offset="0.76" stop-color="#6fb02a"></stop><stop elementtiming="1" offset="1" stop-color="#5e9624"></stop></linearGradient><linearGradient elementtiming="1" id="b3c2bc94-8c7c-48a2-9719-6ee899a43a97" x1="6.18" y1="8.59" x2="7.81" y2="10.23" href="#f020fb7e-2243-4501-8153-5d69bd3c34f7"></linearGradient><linearGradient elementtiming="1" id="e900c35d-0958-4d4f-b28f-302eeaaf52f5" x1="2.48" y1="8.59" x2="4.11" y2="10.23" href="#f020fb7e-2243-4501-8153-5d69bd3c34f7"></linearGradient></defs><title elementtiming="1">Icon-networking-61</title><circle elementtiming="1" cx="12.74" cy="8.99" r="1.16" fill="url(#f020fb7e-2243-4501-8153-5d69bd3c34f7)"></circle><circle elementtiming="1" cx="9.04" cy="9" r="1.16" fill="url(#b3c2bc94-8c7c-48a2-9719-6ee899a43a97)"></circle><circle elementtiming="1" cx="5.34" cy="9" r="1.16" fill="url(#e900c35d-0958-4d4f-b28f-302eeaaf52f5)"></circle><path elementtiming="1" d="M2.61,7.28h.94a.3.3,0,0,1,.3.3v6.94a.6.6,0,0,1-.6.6H2.31a0,0,0,0,1,0,0V7.58a.3.3,0,0,1,.3-.3Z" transform="translate(13.18 16.93) rotate(134.92)" fill="#50e6ff"></path><path elementtiming="1" d="M2.56,2.91H3.5a.3.3,0,0,1,.3.3v7.43a0,0,0,0,1,0,0H2.86a.6.6,0,0,1-.6-.6V3.21a.3.3,0,0,1,.3-.3Z" transform="translate(5.66 -0.16) rotate(44.92)" fill="#1490df"></path><path elementtiming="1" d="M14.15,7.28h.94a.6.6,0,0,1,.6.6v6.94a.3.3,0,0,1-.3.3h-.94a.3.3,0,0,1-.3-.3V7.28a0,0,0,0,1,0,0Z" transform="translate(12.32 -7.28) rotate(45.08)" fill="#50e6ff"></path><path elementtiming="1" d="M14.81,2.91h.94a0,0,0,0,1,0,0v7.43a.3.3,0,0,1-.3.3H14.5a.3.3,0,0,1-.3-.3V3.51a.6.6,0,0,1,.6-.6Z" transform="translate(30.36 0.99) rotate(135.08)" fill="#1490df"></path></svg><rect elementtiming="1" height="30" width="30" class="clear-rect"><title elementtiming="1">vnet-sbx-spokedemo41</title></rect></svg><g elementtiming="1" aria-hidden="true" transform="translate(0, 43)" class="node-title"><text elementtiming="1" y="0" x="0" class="text"><title elementtiming="1">vnet-sbx-spokedemo41</title><tspan elementtiming="1">vnet-sbx-spokedemo41</tspan></text></g></a></g></g></g></g><g elementtiming="1" role="Group" transform="translate(540, 796)" class="node-outer undimmed" aria-label="peer-vnet-sbx-spokedemo21-to-vhub-vwan-lab-001" tabindex="0"><g elementtiming="1" role="presentation" class="resource-node"><g elementtiming="1" aria-hidden="true"><g elementtiming="1"><a elementtiming="1" listener="true"><circle elementtiming="1" r="28" cx="0" cy="0" class="contrast-circle" filter=""></circle><svg elementtiming="1" aria-hidden="true" x="-15" y="-15" height="30" width="30"><svg elementtiming="1" height="30" width="30" preserveAspectRatio="none" id="f8cc67b6-88d2-4d65-b9d4-0887e04d1f38" viewBox="0 0 18 18"><defs elementtiming="1"><radialGradient elementtiming="1" id="b1cd44f2-d62b-4753-a859-aa68f089cdca" cx="46.42" cy="43.21" r="9" gradientTransform="translate(-34.84 -31.81) scale(0.94 0.94)" gradientUnits="userSpaceOnUse"><stop elementtiming="1" offset="0.18" stop-color="#5ea0ef"></stop><stop elementtiming="1" offset="0.56" stop-color="#5c9fee"></stop><stop elementtiming="1" offset="0.69" stop-color="#559ced"></stop><stop elementtiming="1" offset="0.78" stop-color="#4a97e9"></stop><stop elementtiming="1" offset="0.86" stop-color="#3990e4"></stop><stop elementtiming="1" offset="0.93" stop-color="#2387de"></stop><stop elementtiming="1" offset="0.99" stop-color="#087bd6"></stop><stop elementtiming="1" offset="1" stop-color="#0078d4"></stop></radialGradient><clipPath elementtiming="1" id="f0c68de7-8aac-4038-bd4b-8e0fb8fab5fc"><path elementtiming="1" d="M10.58,8.34,13,10.92a.22.22,0,0,1,0,.3l-.47.49a.2.2,0,0,1-.3,0h0L9,8.34A.22.22,0,0,1,9,8l3.15-3.32a.2.2,0,0,1,.3,0h0l.47.49a.23.23,0,0,1,0,.31L10.58,8A.22.22,0,0,0,10.58,8.34Z" fill="none"></path></clipPath><clipPath elementtiming="1" id="e1eb0374-eab6-40b9-91d8-e8a5f1c9b58a"><path elementtiming="1" d="M7.11,9.91,4.68,12.48a.23.23,0,0,0,0,.31l.47.49a.2.2,0,0,0,.3,0h0l3.2-3.37a.22.22,0,0,0,0-.3L5.5,6.29a.2.2,0,0,0-.3,0h0l-.47.49a.22.22,0,0,0,0,.3L7.11,9.61A.2.2,0,0,1,7.11,9.91Z" fill="none"></path></clipPath></defs><title elementtiming="1">Icon-networking-81</title><circle elementtiming="1" cx="9" cy="9" r="8.5" fill="url(#b1cd44f2-d62b-4753-a859-aa68f089cdca)"></circle><circle elementtiming="1" cx="9" cy="9" r="7.4" fill="#fff"></circle><g elementtiming="1" clip-path="url(#f0c68de7-8aac-4038-bd4b-8e0fb8fab5fc)"><polygon elementtiming="1" points="10.43 8.19 13.16 11.07 12.39 11.87 8.89 8.19 12.34 4.56 13.11 5.36 10.43 8.19" fill="#5e9624"></polygon><polygon elementtiming="1" points="13.16 11.07 10.43 8.19 9.67 8.99 12.39 11.87 13.16 11.07" fill="#86d633"></polygon></g><g elementtiming="1" clip-path="url(#e1eb0374-eab6-40b9-91d8-e8a5f1c9b58a)"><polygon elementtiming="1" points="7.26 9.76 4.54 12.64 5.3 13.44 8.8 9.76 5.35 6.13 4.58 6.93 7.26 9.76" fill="#5e9624"></polygon><polygon elementtiming="1" points="4.54 12.64 7.26 9.76 8.02 10.56 5.3 13.44 4.54 12.64" fill="#86d633"></polygon></g></svg><rect elementtiming="1" height="30" width="30" class="clear-rect"><title elementtiming="1">peer-vnet-sbx-spokedemo21-to-vhub-vwan-lab-001</title></rect></svg><g elementtiming="1" aria-hidden="true" transform="translate(0, 43)" class="node-title"><text elementtiming="1" y="0" x="0" class="text"><title elementtiming="1">peer-vnet-sbx-spokedemo21-to-vhub-vwan-lab-001</title><tspan elementtiming="1">peer-vnet-地n-lab-001</tspan></text></g></a></g></g></g></g><g elementtiming="1" role="Group" transform="translate(796, 796)" class="node-outer undimmed" aria-label="vnet-sbx-spokedemo21" tabindex="0"><g elementtiming="1" role="presentation" class="resource-node"><g elementtiming="1" aria-hidden="true"><g elementtiming="1"><a elementtiming="1" listener="true"><circle elementtiming="1" r="28" cx="0" cy="0" class="contrast-circle" filter=""></circle><svg elementtiming="1" aria-hidden="true" x="-15" y="-15" height="30" width="30"><svg elementtiming="1" id="a1606a52-fb14-4637-87de-4d524bba1829" viewBox="0 0 18 18" height="30" width="30" preserveAspectRatio="none"><defs elementtiming="1"><linearGradient elementtiming="1" id="f020fb7e-2243-4501-8153-5d69bd3c34f7" x1="9.88" y1="8.59" x2="11.52" y2="10.23" gradientTransform="translate(2.03 -0.4) rotate(-0.08)" gradientUnits="userSpaceOnUse"><stop elementtiming="1" offset="0" stop-color="#86d633"></stop><stop elementtiming="1" offset="0.24" stop-color="#83d232"></stop><stop elementtiming="1" offset="0.5" stop-color="#7cc52f"></stop><stop elementtiming="1" offset="0.76" stop-color="#6fb02a"></stop><stop elementtiming="1" offset="1" stop-color="#5e9624"></stop></linearGradient><linearGradient elementtiming="1" id="b3c2bc94-8c7c-48a2-9719-6ee899a43a97" x1="6.18" y1="8.59" x2="7.81" y2="10.23" href="#f020fb7e-2243-4501-8153-5d69bd3c34f7"></linearGradient><linearGradient elementtiming="1" id="e900c35d-0958-4d4f-b28f-302eeaaf52f5" x1="2.48" y1="8.59" x2="4.11" y2="10.23" href="#f020fb7e-2243-4501-8153-5d69bd3c34f7"></linearGradient></defs><title elementtiming="1">Icon-networking-61</title><circle elementtiming="1" cx="12.74" cy="8.99" r="1.16" fill="url(#f020fb7e-2243-4501-8153-5d69bd3c34f7)"></circle><circle elementtiming="1" cx="9.04" cy="9" r="1.16" fill="url(#b3c2bc94-8c7c-48a2-9719-6ee899a43a97)"></circle><circle elementtiming="1" cx="5.34" cy="9" r="1.16" fill="url(#e900c35d-0958-4d4f-b28f-302eeaaf52f5)"></circle><path elementtiming="1" d="M2.61,7.28h.94a.3.3,0,0,1,.3.3v6.94a.6.6,0,0,1-.6.6H2.31a0,0,0,0,1,0,0V7.58a.3.3,0,0,1,.3-.3Z" transform="translate(13.18 16.93) rotate(134.92)" fill="#50e6ff"></path><path elementtiming="1" d="M2.56,2.91H3.5a.3.3,0,0,1,.3.3v7.43a0,0,0,0,1,0,0H2.86a.6.6,0,0,1-.6-.6V3.21a.3.3,0,0,1,.3-.3Z" transform="translate(5.66 -0.16) rotate(44.92)" fill="#1490df"></path><path elementtiming="1" d="M14.15,7.28h.94a.6.6,0,0,1,.6.6v6.94a.3.3,0,0,1-.3.3h-.94a.3.3,0,0,1-.3-.3V7.28a0,0,0,0,1,0,0Z" transform="translate(12.32 -7.28) rotate(45.08)" fill="#50e6ff"></path><path elementtiming="1" d="M14.81,2.91h.94a0,0,0,0,1,0,0v7.43a.3.3,0,0,1-.3.3H14.5a.3.3,0,0,1-.3-.3V3.51a.6.6,0,0,1,.6-.6Z" transform="translate(30.36 0.99) rotate(135.08)" fill="#1490df"></path></svg><rect elementtiming="1" height="30" width="30" class="clear-rect"><title elementtiming="1">vnet-sbx-spokedemo21</title></rect></svg><g elementtiming="1" aria-hidden="true" transform="translate(0, 43)" class="node-title"><text elementtiming="1" y="0" x="0" class="text"><title elementtiming="1">vnet-sbx-spokedemo21</title><tspan elementtiming="1">vnet-sbx-spokedemo21</tspan></text></g></a></g></g></g></g></g><style elementtiming="535">.edge-path{fill: none; stroke: #B3B0AD; stroke-width: 2;}
                        .contrast-circle, .inner-circle{fill: #fff; stroke: #B0C4DE; stroke-width: 2;}
                        .clear-rect {fill: transparent;}
                        .pill {fill: #B3B0AD; stroke: #B3B0AD; stroke-width: 2;}
                        .pill-text {fill: #ffffff;}
                        .bg-circle {fill: #fff; stroke: #B0C4DE}
                        .healthy-edge-path {stroke: #57A300;}
                        .unhealthy-edge-path {stroke: #E00B1C;}
                        .unknown-health-edge-path {stroke: #7A7A7A;}
                        .warning-edge-path {stroke: #FF8C00;}
                        .large-expanded-group .group-header .header-outer-rect {fill: transparent;}
                        .node-title .sub-text {font-size: 12px; fill: rgb(75, 75, 75); text-transform: uppercase;}
                        .node-title text {font-size: 15px;text-anchor: middle;}
                        .resource-node .node-title { text-shadow: 0px 0px 2px white, 0px 0px 4px white, 0px 0px 6px white, 0px 0px 8px white, 0px 0px 10px white, 0px 0px 12px white, 0px 0px 14px white, 0px 0px 16px white;}
                        .large-expanded-group .group-header .node-title text {text-anchor: start;font-family: Segoe UI;font-style: normal;font-weight: 600;font-size: 18px;line-height: 24px;}
                        .large-expanded-group .group-header .node-title .sub-text {text-anchor: start;font-family: Segoe UI;font-style: normal;font-weight: normal;font-size: 12px;line-height: 16px;stroke: #605e5c;}
                        .msportalfx-svg-c14 {fill: #57a300;}
                        .msportalfx-svg-c01 {fill: #fff;}
                        .small-expanded-group .group-header .header-outer-rect {fill: #dce4ef;}
                        .small-expanded-group .group-header .node-title text { text-anchor: start; font-family: Segoe UI; font-style: normal; font-weight: normal; font-size: 12px; line-height: 18px;}
                        .small-expanded-group .group-header .node-title .sub-text { text-anchor: start; font-family: Segoe UI; font-style: normal; font-weight: normal; font-size: 11px; line-height: 16px; stroke: #605e5c;}</style></svg>